<?xml version="1.0" standalone="no"?>
<!DOCTYPE svg PUBLIC "-//W3C//DTD SVG 20010904//EN"
 "http://www.w3.org/TR/2001/REC-SVG-20010904/DTD/svg10.dtd">
<svg version="1.0" xmlns="http://www.w3.org/2000/svg"
 width="352.000000pt" height="352.000000pt" viewBox="0 0 352.000000 352.000000"
 preserveAspectRatio="xMidYMid meet">
<metadata>
Created by potrace 1.14, written by Peter Selinger 2001-2017
</metadata>
<g transform="translate(0.000000,352.000000) scale(0.100000,-0.100000)"
fill="#000000" stroke="none">
<path d="M1636 2899 c-49 -5 -90 -10 -92 -12 -4 -4 17 -211 21 -216 2 -2 52 0
110 4 84 6 105 10 105 22 0 13 -13 14 -95 8 l-95 -7 0 35 c0 39 11 47 71 47
29 0 39 4 39 16 0 13 -10 15 -57 12 -56 -3 -58 -2 -61 23 -3 30 15 39 83 39
55 0 85 10 85 26 0 8 -6 13 -12 13 -7 -1 -53 -6 -102 -10z"/>
<path d="M2057 2829 c-15 -11 -32 -37 -38 -58 -23 -78 46 -151 144 -151 51 0
106 33 75 45 -9 4 -25 2 -37 -4 -28 -15 -67 -14 -101 4 -85 44 -57 155 39 155
37 0 101 -32 101 -50 0 -5 7 -10 15 -10 35 0 2 51 -52 79 -37 19 -117 14 -146
-10z"/>
<path d="M1263 2825 c-18 -8 -42 -29 -53 -47 -60 -98 24 -199 140 -168 44 12
100 60 100 85 0 20 -23 31 -29 14 -2 -7 -17 -26 -32 -41 -38 -38 -108 -40
-144 -3 -64 63 6 154 109 143 47 -6 71 7 45 23 -21 13 -100 10 -136 -6z"/>
<path d="M2372 2674 c-29 -53 -50 -100 -47 -105 12 -18 25 -9 45 31 11 22 23
40 26 40 3 0 23 -10 44 -22 37 -22 39 -26 46 -85 4 -38 11 -64 20 -67 11 -4
14 7 14 49 0 46 3 55 18 55 34 0 62 29 62 65 0 38 -19 54 -126 108 l-50 25
-52 -94z m132 15 c62 -34 75 -51 56 -74 -13 -16 -25 -13 -97 27 -49 28 -51 31
-41 54 6 13 14 24 18 24 3 0 32 -14 64 -31z"/>
<path d="M1027 2714 c-6 -6 27 -77 75 -161 17 -30 28 -39 37 -33 11 6 2 29
-38 104 -50 92 -60 104 -74 90z"/>
<path d="M2663 2487 l-73 -82 63 -58 c83 -77 106 -92 118 -80 7 7 -13 31 -61
73 l-70 63 22 24 c12 12 25 23 30 23 4 0 25 -16 47 -35 32 -29 41 -33 50 -21
9 11 2 21 -35 51 -46 38 -46 38 -26 58 20 20 20 20 81 -34 61 -53 82 -64 87
-44 2 9 -137 138 -154 142 -4 1 -40 -35 -79 -80z"/>
<path d="M669 2454 l-74 -74 83 -83 82 -82 77 77 c61 62 75 80 65 90 -10 10
-26 -1 -77 -52 l-65 -64 -25 24 -25 24 40 41 c31 32 37 44 28 53 -9 9 -21 3
-53 -28 l-41 -41 -19 21 c-18 20 -18 21 38 78 31 32 57 63 57 69 0 29 -22 17
-91 -53z"/>
<path d="M1679 2285 c-75 -20 -140 -57 -190 -107 -64 -64 -125 -189 -142 -290
-12 -77 -12 -77 -57 -101 -96 -50 -135 -163 -92 -261 34 -76 117 -102 240 -75
62 13 92 33 75 50 -9 9 -26 8 -77 -6 -112 -30 -181 -6 -207 72 -6 19 -8 50 -4
69 7 39 54 98 96 119 27 15 29 14 84 -44 104 -109 225 -155 405 -155 180 1
324 52 421 149 25 25 53 45 66 45 32 0 81 -46 94 -90 34 -111 -69 -206 -186
-171 -83 25 -87 25 -83 5 5 -26 53 -47 120 -52 104 -8 185 52 196 143 10 94
-25 162 -103 196 l-41 18 -17 93 c-41 214 -162 357 -338 397 -60 14 -204 12
-260 -4z m303 -55 c129 -48 223 -179 255 -354 l16 -90 -53 -48 c-101 -94 -231
-140 -390 -141 -159 0 -290 52 -381 150 -53 59 -56 70 -38 155 36 170 150 301
299 343 77 21 217 14 292 -15z"/>
<path d="M2877 2252 c-99 -16 -123 -34 -54 -40 28 -2 43 -11 65 -40 42 -54 43
-58 31 -85 -8 -17 -8 -30 -1 -43 8 -15 19 1 66 94 31 61 56 116 56 122 0 13
-42 11 -163 -8z m92 -63 l-21 -42 -24 29 c-13 16 -23 32 -24 36 0 8 26 15 63
17 l27 1 -21 -41z"/>
<path d="M490 2214 c-77 -65 -82 -175 -10 -217 59 -35 134 -7 172 63 22 42 21
113 -2 118 -12 2 -15 -8 -15 -47 0 -41 -5 -55 -29 -80 -15 -16 -39 -32 -52
-35 -28 -7 -79 16 -88 39 -20 52 14 129 64 148 17 6 30 17 30 24 0 22 -37 15
-70 -13z"/>
<path d="M3050 2028 c-112 -49 -107 -45 -93 -59 9 -9 29 -5 79 15 36 15 68 26
70 24 1 -2 -13 -28 -31 -57 -19 -30 -32 -57 -30 -61 3 -4 26 -11 51 -15 90
-13 92 -19 15 -50 -64 -25 -82 -41 -65 -57 10 -11 199 78 199 93 0 9 -23 19
-72 29 -39 8 -74 18 -78 21 -3 4 13 36 35 72 37 58 44 88 22 86 -4 0 -50 -19
-102 -41z"/>
<path d="M405 1885 c-44 -8 -86 -14 -92 -14 -7 -1 -13 -6 -13 -12 0 -11 156
-180 172 -187 14 -6 8 28 -9 54 -15 24 -15 29 2 77 20 57 29 67 63 67 13 0 22
6 22 15 0 18 -32 18 -145 0z m34 -52 c-5 -16 -12 -34 -15 -42 -3 -11 -14 -5
-40 20 l-35 34 38 6 c66 11 63 12 52 -18z"/>
<path d="M1380 1373 c0 -21 397 -932 414 -950 6 -7 16 -9 23 -5 15 9 423 930
423 955 0 12 -6 17 -17 15 -12 -2 -72 -128 -194 -403 -98 -220 -187 -422 -199
-450 l-21 -50 -197 450 c-140 318 -202 451 -215 453 -11 2 -17 -3 -17 -15z"/>
<path d="M1505 1380 c-3 -5 59 -154 137 -332 112 -253 147 -323 161 -323 13 0
32 25 60 78 35 64 40 79 27 86 -20 13 -27 7 -56 -51 -14 -27 -27 -48 -29 -46
-4 4 -245 549 -245 554 0 2 34 4 75 4 68 0 75 2 75 20 0 19 -7 20 -99 20 -55
0 -102 -4 -106 -10z"/>
<path d="M1748 1378 c-5 -15 148 -408 166 -426 10 -10 15 -9 27 5 20 23 189
397 189 418 0 18 -24 20 -37 3 -5 -7 -36 -71 -68 -143 -32 -71 -67 -148 -78
-170 l-20 -40 -18 42 -18 42 60 130 c33 72 58 135 54 141 -16 26 -36 2 -81
-95 -26 -58 -51 -105 -54 -105 -6 0 -33 65 -66 152 -5 15 3 17 58 20 50 2 63
6 66 21 3 15 -6 17 -86 17 -62 0 -92 -4 -94 -12z"/>
</g>
</svg>
